<svg width="41" height="40" viewBox="0 0 41 40" fill="none" xmlns="http://www.w3.org/2000/svg">
<path d="M27.1667 13.3333C29.8189 13.3333 32.3624 14.3869 34.2378 16.2623C36.1131 18.1376 37.1667 20.6812 37.1667 23.3333V35H30.5V23.3333C30.5 22.4493 30.1488 21.6014 29.5237 20.9763C28.8986 20.3512 28.0508 20 27.1667 20C26.2827 20 25.4348 20.3512 24.8097 20.9763C24.1846 21.6014 23.8334 22.4493 23.8334 23.3333V35H17.1667V23.3333C17.1667 20.6812 18.2203 18.1376 20.0956 16.2623C21.971 14.3869 24.5145 13.3333 27.1667 13.3333Z" stroke="#EAE9FC" stroke-width="3.5" stroke-linecap="round" stroke-linejoin="round"/>
<path d="M10.5 15H3.83337V35H10.5V15Z" stroke="#EAE9FC" stroke-width="3.5" stroke-linecap="round" stroke-linejoin="round"/>
<path d="M7.16671 9.99999C9.00766 9.99999 10.5 8.50761 10.5 6.66666C10.5 4.82571 9.00766 3.33333 7.16671 3.33333C5.32576 3.33333 3.83337 4.82571 3.83337 6.66666C3.83337 8.50761 5.32576 9.99999 7.16671 9.99999Z" stroke="#EAE9FC" stroke-width="3.5" stroke-linecap="round" stroke-linejoin="round"/>
</svg>
